<?xml version="1.0" encoding="utf-8"?>
<!-- Generator: Adobe Illustrator 27.5.0, SVG Export Plug-In . SVG Version: 6.00 Build 0)  -->
<svg version="1.1" xmlns="http://www.w3.org/2000/svg" xmlns:xlink="http://www.w3.org/1999/xlink" x="0px" y="0px"
	 viewBox="0 0 500 500" style="enable-background:new 0 0 500 500;" xml:space="preserve">
<g id="Background_Complete">
	<g>
		<rect y="382.398" style="fill:#EBEBEB;" width="500" height="0.25"/>
		<rect x="52.459" y="391.922" style="fill:#EBEBEB;" width="25.54" height="0.25"/>
		<rect x="154.056" y="389.208" style="fill:#EBEBEB;" width="109.944" height="0.25"/>
		<rect x="97.333" y="395.181" style="fill:#EBEBEB;" width="72.667" height="0.25"/>
		<rect x="353.655" y="399.528" style="fill:#EBEBEB;" width="96.246" height="0.25"/>
		<rect x="338.419" y="399.528" style="fill:#EBEBEB;" width="6.333" height="0.25"/>
		<rect x="301.222" y="395.306" style="fill:#EBEBEB;" width="69.667" height="0.25"/>
		<path style="fill:#EBEBEB;" d="M237.014,337.8H43.915c-3.147,0-5.708-2.561-5.708-5.708V60.66c0-3.147,2.561-5.708,5.708-5.708
			h193.099c3.146,0,5.707,2.561,5.707,5.708v271.432C242.721,335.239,240.16,337.8,237.014,337.8z M43.915,55.203
			c-3.01,0-5.458,2.448-5.458,5.458v271.432c0,3.01,2.448,5.458,5.458,5.458h193.099c3.009,0,5.457-2.448,5.457-5.458V60.66
			c0-3.009-2.448-5.458-5.457-5.458H43.915z"/>
		<path style="fill:#EBEBEB;" d="M453.31,337.8H260.212c-3.147,0-5.707-2.561-5.707-5.708V60.66c0-3.147,2.561-5.708,5.707-5.708
			H453.31c3.148,0,5.708,2.561,5.708,5.708v271.432C459.019,335.239,456.458,337.8,453.31,337.8z M260.212,55.203
			c-3.009,0-5.457,2.448-5.457,5.458v271.432c0,3.01,2.448,5.458,5.457,5.458H453.31c3.01,0,5.458-2.448,5.458-5.458V60.66
			c0-3.009-2.448-5.458-5.458-5.458H260.212z"/>
	</g>
	<g>
		<path style="fill:#F5F5F5;" d="M443.585,94.684c-3.899,11.286-17.112,0.394-23.278-8.615c6.271-3.273,15.586-4.02,20.552-0.408
			c-2.258-4.422-4.706-8.757-7.341-12.995c0.055,0.777,0.013,1.612-0.142,2.506c-2.432,11.731-16.938,2.496-24.263-5.761
			c5.812-4.033,14.987-5.911,20.392-2.91c-1.008-1.48-2.039-2.947-3.095-4.4c-8.423-0.462-7.483-13.247-3.698-20.842
			c7.707,6.343,13.017,19.328,5.932,20.705c2.742,3.83,5.324,7.754,7.742,11.762c-0.41-6.066,4.031-14.39,9.556-18.846
			c7.811,12.232,7.962,31.433-3.608,26.424c-0.856-0.338-1.605-0.726-2.255-1.161c2.416,4.407,4.641,8.904,6.672,13.479
			c0.365-6.037,5.831-13.707,11.872-17.432c6.156,13.001,3.905,32.011-6.936,25.642c-0.806-0.438-1.497-0.914-2.089-1.423
			c1.838,4.649,3.48,9.369,4.923,14.147c1.118-5.932,7.499-12.842,13.958-15.785c4.469,13.602-0.117,32.182-10.084,24.525
			c-0.745-0.534-1.372-1.091-1.896-1.668c1.246,4.833,2.29,9.718,3.13,14.642c1.841-5.751,9.033-11.813,15.808-13.931
			c2.748,14.035-4.102,31.96-13.046,23.098c-0.671-0.625-1.226-1.256-1.675-1.895c0.638,4.96,1.07,9.952,1.291,14.965
			c2.541-5.501,10.43-10.634,17.413-11.896c0.991,14.302-8.047,31.358-15.814,21.386c-0.588-0.708-1.061-1.407-1.425-2.101
			c0.015,5.029-0.182,10.072-0.594,15.116c3.215-5.186,11.682-9.321,18.769-9.706c-0.798,14.403-11.949,30.389-18.383,19.411
			c-0.495-0.783-0.875-1.543-1.148-2.284c-0.612,4.948-1.432,9.89-2.465,14.815c-0.127,0.607-0.651,1.013-1.159,0.902
			c-0.508-0.111-0.818-0.691-0.693-1.29c1.698-8.101,2.817-16.25,3.372-24.392c-0.409,0.664-0.931,1.32-1.58,1.958
			c-8.833,8.152-15.202-7.966-16.318-18.776c7.073,0.124,15.612,3.909,18.245,9.479c0.132-4.984,0.053-9.959-0.232-14.912
			c-0.323,0.705-0.759,1.415-1.323,2.123c-7.746,9.116-16.083-5.93-18.523-16.472c7.033-0.759,15.974,1.915,19.277,7.078
			c-0.488-4.929-1.181-9.829-2.077-14.689c-0.234,0.737-0.578,1.493-1.05,2.262c-6.557,9.966-16.691-3.842-20.414-13.995
			c6.886-1.627,16.086-0.085,20.001,4.612c-1.093-4.816-2.386-9.586-3.876-14.295c-0.141,0.76-0.386,1.551-0.762,2.374
			c-5.276,10.694-17.029-1.728-21.997-11.368c6.631-2.468,15.954-2.071,20.424,2.108c-1.683-4.648-3.561-9.229-5.632-13.731
			C444.001,93.001,443.851,93.821,443.585,94.684z"/>
		<path style="fill:#F5F5F5;" d="M170.156,377.613c4.759-8.229-8.682-10.503-17.317-9.518c1.299,5.48,5.705,11.475,10.467,12.58
			c-3.838,0.946-7.723,1.733-11.647,2.356c0.496-0.372,0.977-0.832,1.435-1.392c5.792-7.578-7.327-11.494-16.113-11.599
			c0.602,5.6,4.255,12.1,8.878,13.788c-1.416,0.165-2.836,0.309-4.261,0.431c-4.668-4.828-11.872,2.401-14.47,8.638
			c7.834,1.332,18.416-2.24,15.552-7.222c3.734-0.346,7.441-0.838,11.114-1.472c-3.865,2.915-6.559,9.926-6.361,15.573
			c11.432-1.675,23.066-11.592,14.022-15.944c-0.65-0.339-1.273-0.587-1.874-0.752c3.911-0.843,7.777-1.848,11.589-3.011
			c-3.443,3.367-5.209,10.654-4.303,16.23c11.033-3.072,21.299-14.335,11.816-17.539c-0.684-0.257-1.33-0.424-1.945-0.516
			c3.756-1.317,7.452-2.789,11.08-4.411c-2.987,3.765-3.82,11.206-2.224,16.627c10.515-4.4,19.306-16.844,9.503-18.852
			c-0.71-0.17-1.372-0.257-1.992-0.272c3.558-1.769,7.042-3.687,10.443-5.748c-2.501,4.106-2.4,11.593-0.144,16.774
			c9.878-5.662,17.095-19.127,7.101-19.89c-0.726-0.078-1.395-0.083-2.013-0.02c3.317-2.201,6.547-4.544,9.679-7.023
			c-1.986,4.396-0.963,11.82,1.917,16.68c9.123-6.858,14.677-21.187,4.627-20.663c-0.732,0.015-1.4,0.095-2.007,0.237
			c3.034-2.612,5.966-5.359,8.787-8.236c-1.445,4.638,0.479,11.889,3.942,16.354c8.252-7.988,12.06-23.03,2.1-21.18
			c-0.729,0.11-1.385,0.278-1.973,0.5c2.659-2.947,5.205-6.017,7.631-9.205c0.299-0.393,0.27-0.92-0.062-1.168
			c-0.331-0.248-0.842-0.132-1.138,0.256c-3.99,5.245-8.311,10.165-12.922,14.743c0.186-0.592,0.309-1.248,0.354-1.971
			c0.302-9.565-12.718-4.997-19.804-0.033c3.761,4.192,10.49,7.358,15.214,6.039c-2.931,2.677-5.965,5.223-9.095,7.633
			c0.256-0.562,0.456-1.194,0.588-1.903c1.448-9.413-11.951-6.588-19.567-2.561c3.209,4.628,9.478,8.615,14.307,7.911
			c-3.22,2.275-6.531,4.412-9.922,6.406c0.322-0.525,0.597-1.126,0.814-1.811c2.58-9.141-11.012-8.042-19.062-4.991
			c2.61,4.992,8.333,9.725,13.201,9.633c-3.468,1.853-7.012,3.56-10.623,5.118c0.384-0.481,0.732-1.041,1.032-1.696
			c3.686-8.749-9.915-9.348-18.306-7.312c1.971,5.277,7.07,10.681,11.914,11.192c-3.674,1.41-7.41,2.667-11.198,3.768
			C169.36,378.741,169.775,378.223,170.156,377.613z"/>
		<path style="fill:#E6E6E6;" d="M166.903,344.281c9.352-11.451-10.719-18.282-24.221-18.917
			c0.632,8.736,5.906,19.035,12.942,21.915c-6.127,0.498-12.287,0.74-18.466,0.722c0.855-0.447,1.707-1.035,2.548-1.78
			c10.775-10.194-8.391-19.467-21.855-21.812c-0.468,8.746,3.524,19.634,10.202,23.375c-2.215-0.099-4.431-0.231-6.648-0.397
			c-5.967-8.573-18.824,0.736-24.363,9.665c11.696,3.992,28.83,1.138,25.671-7.222c5.819,0.397,11.633,0.563,17.428,0.503
			c-6.657,3.515-12.537,13.608-13.636,22.328c17.968,0.27,38.293-12.064,25.489-20.993c-0.913-0.682-1.809-1.218-2.69-1.62
			c6.214-0.322,12.4-0.904,18.54-1.742c-6.123,4.313-10.646,15.061-10.639,23.848c17.701-1.974,36.262-16.714,22.499-23.99
			c-0.986-0.564-1.937-0.982-2.857-1.275c6.093-1.088,12.134-2.429,18.106-4.018c-5.521,5.038-8.65,16.255-7.547,24.974
			c17.236-4.141,33.826-21.062,19.275-26.58c-1.047-0.438-2.042-0.735-2.99-0.912c5.902-1.832,11.728-3.91,17.461-6.229
			c-4.86,5.682-6.566,17.202-4.39,25.716c16.573-6.237,30.999-25.116,15.845-28.772c-1.095-0.3-2.121-0.474-3.085-0.532
			c5.64-2.555,11.18-5.349,16.605-8.377c-4.142,6.256-4.416,17.907-1.202,26.084c15.711-8.262,27.799-28.879,12.24-30.573
			c-1.128-0.159-2.173-0.202-3.141-0.135c5.308-3.257,10.492-6.745,15.537-10.46c-3.371,6.761-2.219,18.371,1.987,26.088
			c14.654-10.212,24.239-32.359,8.488-31.995c-1.147-0.012-2.195,0.083-3.153,0.278c4.814-3.864,9.487-7.944,14.003-12.236
			c0.556-0.529,0.643-1.345,0.196-1.808c-0.447-0.463-1.26-0.412-1.81,0.11c-7.429,7.06-15.286,13.541-23.502,19.422
			c0.434-0.863,0.785-1.84,1.034-2.938c2.841-14.609-18.283-10.832-30.396-4.974c4.733,7.37,14.276,13.904,21.856,13.052
			c-5.165,3.382-10.456,6.536-15.86,9.458c0.532-0.799,0.996-1.72,1.375-2.775c4.563-14.091-16.711-13.085-29.404-8.796
			c3.776,7.902,12.411,15.581,19.998,15.702c-5.51,2.693-11.123,5.151-16.825,7.369c0.624-0.726,1.196-1.581,1.7-2.579
			c6.233-13.392-14.908-15.084-28.025-12.4c2.767,8.312,10.376,17.001,17.872,18.069c-5.785,1.982-11.65,3.723-17.581,5.217
			c0.709-0.643,1.383-1.416,2.005-2.348c7.833-12.516-12.9-16.815-26.287-15.776c1.714,8.591,8.199,18.155,15.509,20.144
			c-5.991,1.251-12.039,2.253-18.129,3.001C165.401,345.814,166.167,345.123,166.903,344.281z"/>
		<path style="fill:#F0F0F0;" d="M57.127,130.547c-8.851-1.296-14.865-11.947-11.331-18.104c3.534-6.156,3.187-13.736,1.098-19.323
			c-2.089-5.586-2.962-19.909,3.835-28.439s4.681-9.945,10.666-19.492c5.985-9.547,20.109-8.338,13.125,2.985
			s10.878,17.38,5.17,31.023c-5.708,13.643-0.312,18.891,4.519,26.049C89.04,112.405,76.684,133.411,57.127,130.547z"/>
		<path style="fill:#FAFAFA;" d="M70.803,148.036c-14.187-27.238-14.33-53.987-11.952-71.63c2.576-19.115,8.59-31.965,8.65-32.093
			l0.529,0.251c-0.06,0.126-6.04,12.911-8.602,31.942c-2.363,17.554-2.218,44.165,11.895,71.26L70.803,148.036z"/>
		<path style="fill:#EBEBEB;" d="M67.597,157.904c-9.168,2.599-21.08-4.868-21.299-12.212c-0.22-7.344-4.958-14.357-10.192-18.733
			c-5.234-4.376-14.393-17.533-12.891-28.53c1.502-10.997-1.333-11.42-1.194-23.026c0.139-11.607,14.27-16.566,14.214-2.849
			S56.683,84.277,59.19,99.635c2.507,15.358,10.688,17.987,19.443,22.663C87.388,126.974,87.856,152.162,67.597,157.904z"/>
		<path style="fill:#FAFAFA;" d="M82.127,162.15c-20.276-10.967-34.009-33.156-41.959-49.839
			c-8.736-18.333-13.144-35.934-12.226-39.53l0.567,0.145c-1.55,6.072,15.673,68.037,53.896,88.711L82.127,162.15z"/>
		<path style="fill:#E0E0E0;" d="M238.896,47.133c0,0.71-0.575,1.285-1.285,1.285s-1.285-0.575-1.285-1.285s0.575-1.285,1.285-1.285
			S238.896,46.423,238.896,47.133z"/>
		<path style="fill:#F0F0F0;" d="M122.459,48.418c0,0.71-0.575,1.285-1.285,1.285c-0.71,0-1.285-0.575-1.285-1.285
			c0-0.71,0.575-1.285,1.285-1.285C121.883,47.133,122.459,47.708,122.459,48.418z"/>
		<path style="fill:#F0F0F0;" d="M189.206,72.853c-3.807,1.285-4.848,2.326-6.133,6.133c-1.285-3.807-2.326-4.848-6.133-6.133
			c3.807-1.285,4.848-2.326,6.133-6.133C184.357,70.526,185.399,71.568,189.206,72.853z"/>
		<path style="fill:#E0E0E0;" d="M311.559,65.204c-2.434,0.822-3.1,1.488-3.922,3.922c-0.822-2.434-1.488-3.1-3.922-3.922
			c2.434-0.822,3.1-1.488,3.922-3.922C308.459,63.717,309.125,64.383,311.559,65.204z"/>
		<path style="fill:#F0F0F0;" d="M278.426,364.199c-2.434,0.822-3.1,1.488-3.922,3.922c-0.821-2.434-1.488-3.1-3.922-3.922
			c2.434-0.821,3.1-1.488,3.922-3.922C275.326,362.711,275.992,363.377,278.426,364.199z"/>
	</g>
</g>
<g id="Background_Simple" style="display:none;">
	<g style="display:inline;">
		<g style="opacity:0.9;">
			<path style="fill:#407BFF;" d="M360.345,347.559c-56.37,78.957-151.193,6.453-173.641-56.727
				c-8.915-25.093-7.176-38.716-26.956-56.261c-14.371-12.748-36.411-9.474-49.9-25.137c-29.577-34.343-18.067-98.868,7.745-128.91
				c26.784-31.174,65.007-43.471,93.141-19.847c20.586,17.286,21.989,47.898,34.309,57.83c25.314,20.408,41.774,7.865,68.569,12.086
				C411.953,146.083,411.542,275.851,360.345,347.559z"/>
		</g>
		<g style="opacity:0.9;">
			<path style="fill:#FFFFFF;" d="M360.345,347.559c-56.37,78.957-151.193,6.453-173.641-56.727
				c-8.915-25.093-7.176-38.716-26.956-56.261c-14.371-12.748-36.411-9.474-49.9-25.137c-29.577-34.343-18.067-98.868,7.745-128.91
				c26.784-31.174,65.007-43.471,93.141-19.847c20.586,17.286,21.989,47.898,34.309,57.83c25.314,20.408,41.774,7.865,68.569,12.086
				C411.953,146.083,411.542,275.851,360.345,347.559z"/>
		</g>
	</g>
</g>
<g id="Shadow_1_">
	<ellipse id="_x3C_Path_x3E__201_" style="fill:#F5F5F5;" cx="250" cy="416.238" rx="193.889" ry="11.323"/>
</g>
<g id="Landing_Page">
	<g>
		<g>
			<g>
				<rect x="43" y="92.659" style="fill:#407BFF;" width="414" height="261.394"/>
				<rect x="43" y="92.659" style="opacity:0.6;fill:#FFFFFF;" width="414" height="261.394"/>
			</g>
			<g>
				<rect x="45.667" y="89.775" style="fill:#407BFF;" width="408.667" height="261.702"/>
				<rect x="45.667" y="89.775" style="opacity:0.8;fill:#FFFFFF;" width="408.667" height="261.702"/>
			</g>
			<path style="opacity:0.3;fill:#FFFFFF;" d="M338.004,338.738c-1.777,0-3.571-0.038-5.39-0.113
				c-35.965-1.497-59.198-16.583-83.795-32.555c-10.61-6.89-21.581-14.014-34.066-20.426c-21.35-10.964-36.284-5.913-52.095-0.566
				c-10.403,3.519-21.153,7.16-34.254,6.322c-15.072-0.961-26.29-6.526-33.343-16.538c-10.897-15.47-9.603-39.008-4.758-55.877
				c9.591-33.392,32.32-59.24,65.729-74.749c31.893-14.805,72.274-19.813,116.777-14.483c58.473,7.004,109.957,35.512,134.36,74.4
				c16.255,25.904,19.583,54.926,9.624,83.929C405.669,320.473,377.109,338.737,338.004,338.738z M189.921,278.625
				c7.526,0,15.674,1.754,25.06,6.574c12.508,6.424,23.49,13.555,34.11,20.451c24.539,15.934,47.716,30.984,83.544,32.475
				c41.64,1.741,72.134-16.566,83.685-50.206c9.908-28.855,6.597-57.73-9.575-83.501c-24.325-38.764-75.669-67.184-133.996-74.17
				c-93.289-11.169-163.01,22.883-181.965,88.874c-4.813,16.758-6.11,40.126,4.686,55.451c6.962,9.882,18.053,15.376,32.967,16.327
				c12.993,0.828,23.704-2.793,34.062-6.296C171.476,281.567,180.177,278.625,189.921,278.625z"/>
			<path style="fill:#FFFFFF;" d="M417.914,169.913c25.982,39.675,20.929,98.413-29.058,132.821
				c-54.474,37.496-106.355,27.742-132.896-11.324c-26.541-39.066-14.861-88.832,26.819-124.527
				C324.458,131.188,390.403,127.903,417.914,169.913z"/>
			<g style="opacity:0.5;">
				<path style="fill:#407BFF;" d="M93.534,108.173H72.466c-0.797,0-1.45-0.652-1.45-1.45v-0.304c0-0.798,0.653-1.45,1.45-1.45
					h21.068c0.797,0,1.45,0.652,1.45,1.45v0.304C94.984,107.52,94.332,108.173,93.534,108.173z"/>
				<path style="fill:#407BFF;" d="M141.471,108.173h-21.068c-0.798,0-1.45-0.652-1.45-1.45v-0.304c0-0.798,0.652-1.45,1.45-1.45
					h21.068c0.798,0,1.45,0.652,1.45,1.45v0.304C142.921,107.52,142.268,108.173,141.471,108.173z"/>
				<path style="fill:#407BFF;" d="M189.407,108.173h-21.068c-0.798,0-1.45-0.652-1.45-1.45v-0.304c0-0.798,0.652-1.45,1.45-1.45
					h21.068c0.798,0,1.45,0.652,1.45,1.45v0.304C190.857,107.52,190.205,108.173,189.407,108.173z"/>
				<path style="fill:#407BFF;" d="M237.344,108.173h-21.068c-0.798,0-1.45-0.652-1.45-1.45v-0.304c0-0.798,0.653-1.45,1.45-1.45
					h21.068c0.798,0,1.45,0.652,1.45,1.45v0.304C238.794,107.52,238.141,108.173,237.344,108.173z"/>
			</g>
			<path style="fill:#407BFF;" d="M431.683,110.789h-38.272c-1.449,0-2.634-1.185-2.634-2.634v-0.552
				c0-1.449,1.185-2.634,2.634-2.634h38.272c1.449,0,2.634,1.185,2.634,2.634v0.552
				C434.318,109.604,433.132,110.789,431.683,110.789z"/>
			<g>
				<path style="fill:#FFFFFF;" d="M189.107,164.003H77.088c-3.34,0-6.073-2.733-6.073-6.073v0c0-3.34,2.733-6.073,6.073-6.073
					h112.019c3.34,0,6.073,2.733,6.073,6.073v0C195.18,161.27,192.447,164.003,189.107,164.003z"/>
				<path style="fill:#FFFFFF;" d="M219.358,201.606H76.436c-2.993,0-5.42-2.426-5.42-5.42v-14.555c0-2.993,2.426-5.42,5.42-5.42
					h142.923c2.993,0,5.42,2.426,5.42,5.42v14.555C224.778,199.179,222.351,201.606,219.358,201.606z"/>
				<path style="fill:#FFFFFF;" d="M174.236,237.33H76.436c-2.993,0-5.42-2.426-5.42-5.42v-14.555c0-2.993,2.426-5.42,5.42-5.42
					h97.801c2.993,0,5.42,2.426,5.42,5.42v14.555C179.656,234.903,177.23,237.33,174.236,237.33z"/>
				<path style="opacity:0.3;fill:#407BFF;" d="M175.568,254.697H73.259c-1.239,0-2.243-1.004-2.243-2.243l0,0
					c0-1.239,1.004-2.243,2.243-2.243h102.31c1.239,0,2.243,1.004,2.243,2.243l0,0C177.811,253.693,176.807,254.697,175.568,254.697
					z"/>
				<path style="opacity:0.3;fill:#407BFF;" d="M144.229,263.362H73.259c-1.239,0-2.243-1.004-2.243-2.243l0,0
					c0-1.239,1.004-2.243,2.243-2.243h70.971c1.239,0,2.243,1.004,2.243,2.243l0,0C146.472,262.358,145.468,263.362,144.229,263.362
					z"/>
				<path style="opacity:0.1;fill:#407BFF;" d="M156.468,315.285H86.204c-8.388,0-15.188-6.8-15.188-15.188v0
					c0-8.388,6.8-15.188,15.188-15.188h70.264c8.388,0,15.188,6.8,15.188,15.188v0C171.656,308.485,164.856,315.285,156.468,315.285
					z"/>
				<path style="fill:#407BFF;" d="M155.26,312.324H87.214c-8.123,0-14.709-6.585-14.709-14.709l0,0
					c0-8.124,6.585-14.709,14.709-14.709h68.046c8.124,0,14.709,6.585,14.709,14.709l0,0
					C169.969,305.738,163.383,312.324,155.26,312.324z"/>
				<path style="opacity:0.4;fill:#FFFFFF;" d="M138.174,301.515h-33.875c-2.154,0-3.9-1.746-3.9-3.9l0,0c0-2.154,1.746-3.9,3.9-3.9
					h33.875c2.154,0,3.9,1.746,3.9,3.9l0,0C142.074,299.769,140.328,301.515,138.174,301.515z"/>
			</g>
		</g>
		<g>
			<path style="fill:#FFFFFF;" d="M291.897,132.99c2.256,8.551-2.844,17.32-11.404,19.579c-6.313,1.665-12.749-0.68-16.586-5.474
				c2.575,0.686,5.358,0.729,8.127-0.002c8.551-2.256,13.664-11.018,11.405-19.578c-0.591-2.239-1.621-4.234-2.993-5.931
				C285.855,122.981,290.369,127.198,291.897,132.99z"/>
			<circle style="opacity:0.6;fill:#FFFFFF;" cx="437.167" cy="179.893" r="0.889"/>
			<path style="opacity:0.6;fill:#FFFFFF;" d="M371.416,132.183c0,0.491-0.398,0.889-0.889,0.889s-0.889-0.398-0.889-0.889
				c0-0.491,0.398-0.889,0.889-0.889S371.416,131.692,371.416,132.183z"/>
			<circle style="opacity:0.6;fill:#FFFFFF;" cx="302.5" cy="145.574" r="0.889"/>
			<circle style="opacity:0.6;fill:#407BFF;" cx="341.264" cy="171.811" r="0.889"/>
			<path style="opacity:0.6;fill:#407BFF;" d="M413.436,218.329c0,0.491-0.398,0.889-0.889,0.889s-0.889-0.398-0.889-0.889
				c0-0.491,0.398-0.889,0.889-0.889S413.436,217.839,413.436,218.329z"/>
			<path style="opacity:0.7;fill:#FFFFFF;" d="M328.553,127.94c-2.633,0.889-3.354,1.609-4.243,4.243
				c-0.889-2.634-1.609-3.354-4.243-4.243c2.633-0.889,3.354-1.609,4.243-4.243C325.199,126.33,325.919,127.051,328.553,127.94z"/>
			<path style="opacity:0.7;fill:#FFFFFF;" d="M421.685,144.685c-1.684,0.568-2.145,1.029-2.713,2.713
				c-0.568-1.684-1.029-2.145-2.713-2.713c1.684-0.568,2.145-1.029,2.713-2.713C419.541,143.656,420.001,144.117,421.685,144.685z"
				/>
			<path style="opacity:0.7;fill:#FFFFFF;" d="M250.925,157.93c-1.684,0.568-2.145,1.029-2.713,2.713
				c-0.568-1.684-1.029-2.145-2.713-2.713c1.684-0.568,2.145-1.029,2.713-2.713C248.78,156.901,249.24,157.362,250.925,157.93z"/>
			<path style="opacity:0.7;fill:#407BFF;" d="M313.683,172.392c-2.079,0.702-2.648,1.271-3.35,3.35
				c-0.702-2.079-1.271-2.648-3.35-3.35c2.079-0.702,2.648-1.271,3.35-3.35C311.035,171.121,311.604,171.69,313.683,172.392z"/>
			<path style="opacity:0.7;fill:#407BFF;" d="M348.088,145.574c-0.976,0.329-1.243,0.596-1.572,1.572
				c-0.329-0.976-0.596-1.243-1.572-1.572c0.976-0.329,1.243-0.596,1.572-1.572C346.845,144.978,347.112,145.245,348.088,145.574z"
				/>
		</g>
		<g>
			<path style="fill:#407BFF;" d="M382.105,241.696c0.401-1.471,7.134-0.918,15.035,1.237c7.908,2.158,13.981,5.1,13.58,6.57
				l8.314,2.269c0.635-2.326-8.974-6.976-21.472-10.386c-12.49-3.408-23.129-4.283-23.764-1.957L382.105,241.696z"/>
			<path style="opacity:0.2;" d="M385.79,238.817c3.494,0.547,7.526,1.411,11.773,2.57c4.246,1.159,8.159,2.462,11.452,3.767
				c0.1,0.8,0.124,1.62,0.071,2.442c-2.278-1.459-6.71-3.234-11.945-4.662c-5.223-1.425-9.941-2.153-12.652-2.049
				C384.861,240.149,385.293,239.453,385.79,238.817z"/>
			<g>
				
					<ellipse transform="matrix(0.9187 -0.3949 0.3949 0.9187 -64.7651 176.4851)" style="fill:#407BFF;" cx="396.416" cy="245.599" rx="11.374" ry="11.374"/>
				<circle style="opacity:0.4;fill:#FFFFFF;" cx="396.416" cy="245.598" r="11.374"/>
				<path style="opacity:0.1;fill:#FFFFFF;" d="M387.488,242.318c0.094,2.159,1.74,3.206,3.678,2.339
					c1.937-0.867,3.432-3.32,3.338-5.478c-0.094-2.159-1.74-3.206-3.678-2.339C388.889,237.707,387.394,240.159,387.488,242.318z"/>
				<path style="opacity:0.1;fill:#FFFFFF;" d="M398.364,240.849c0.282,0.768,1.134,1.162,1.902,0.88
					c0.768-0.282,1.162-1.134,0.88-1.902s-1.134-1.162-1.902-0.88C398.475,239.229,398.081,240.081,398.364,240.849z"/>
				<path style="opacity:0.1;fill:#FFFFFF;" d="M401.085,253.025c0.241,0.655,0.967,0.991,1.622,0.75
					c0.655-0.241,0.991-0.967,0.75-1.622c-0.241-0.655-0.967-0.991-1.622-0.751C401.18,251.644,400.844,252.37,401.085,253.025z"/>
			</g>
			<path style="opacity:0.5;fill:#407BFF;" d="M395.398,249.32c4.208,1.148,8.076,1.838,10.838,2.02
				c-0.377,0.646-0.81,1.241-1.302,1.791c-3.049-0.537-6.431-1.301-9.958-2.263c-3.528-0.963-6.829-2.023-9.728-3.108
				c-0.145-0.723-0.216-1.456-0.212-2.204C387.508,246.802,391.196,248.174,395.398,249.32z"/>
			<path style="fill:#407BFF;" d="M382.105,241.696c-0.401,1.47,5.679,4.414,13.58,6.57c7.908,2.158,14.633,2.708,15.035,1.237
				l8.314,2.269c-0.635,2.326-11.274,1.451-23.771-1.959c-12.49-3.408-22.099-8.058-21.464-10.384L382.105,241.696z"/>
		</g>
		<g>
			<g>
				<path style="fill:#407BFF;" d="M223.342,283.014l-10.903,17.962l17.329-4.843l17.329-4.843l-21.139-9.007
					C224.954,281.855,223.86,282.161,223.342,283.014z"/>
				<path style="opacity:0.5;fill:#FFFFFF;" d="M223.342,283.014l-10.903,17.962l17.329-4.843l17.329-4.843l-21.139-9.007
					C224.954,281.855,223.86,282.161,223.342,283.014z"/>
			</g>
			<g>
				<path style="fill:#407BFF;" d="M254.974,314.465l-32.997,9.221c-0.783,0.219-1.675-0.262-1.981-1.069l-7.868-20.729
					c-0.306-0.807,0.084-1.647,0.867-1.866l32.997-9.221c0.783-0.219,1.675,0.262,1.981,1.069l7.868,20.729
					C256.148,313.407,255.758,314.246,254.974,314.465z"/>
				<path style="opacity:0.3;fill:#FFFFFF;" d="M254.974,314.465l-32.997,9.221c-0.783,0.219-1.675-0.262-1.981-1.069l-7.868-20.729
					c-0.306-0.807,0.084-1.647,0.867-1.866l32.997-9.221c0.783-0.219,1.675,0.262,1.981,1.069l7.868,20.729
					C256.148,313.407,255.758,314.246,254.974,314.465z"/>
			</g>
			<path style="opacity:0.2;fill:#407BFF;" d="M234.717,310.503l-19.951-9.626c-0.625-0.301-0.629-1.174-0.007-1.347l14.734-4.118
				l14.734-4.118c0.622-0.174,1.217,0.533,0.919,1.092l-9.518,17.861C235.462,310.562,235.068,310.672,234.717,310.503z"/>
			<path style="fill:#263238;" d="M235.167,305.861c-1.315-0.606-2.776-0.198-3.423,0.957l-9.767,16.869l32.997-9.221
				L235.167,305.861z"/>
			<g>
				<path style="fill:#407BFF;" d="M234.195,305.707l-12.218,17.98l16.499-4.611l16.499-4.611l-18.288-9.454
					C235.73,304.603,234.688,304.894,234.195,305.707z"/>
				<path style="opacity:0.12;fill:#FFFFFF;" d="M236.686,305.01c-0.956-0.408-1.998-0.116-2.491,0.696l-12.218,17.98l32.997-9.221
					L236.686,305.01z"/>
			</g>
		</g>
	</g>
</g>
<g id="Character_1_">
	<g>
		<g>
			<path style="fill:#263238;" d="M272.219,174.048c3.334-3.586,8.337,4.821,8.337,4.821s3.284,1.199,0.218,3.828
				C271.215,178.412,272.219,174.048,272.219,174.048z"/>
			<path d="M301.526,292.903c-7.591-12.929,47.997-24.159,48.616-35.23c-8.484-16.637-23.073-36.028-23.073-36.028l-48.341,21.267
				C278.727,242.912,287.363,286.645,301.526,292.903z"/>
			<g>
				<path style="fill:#263238;" d="M315.3,272.779l15.208-24.123c0,0,50.957,37.347,54.995,45.386
					c4.038,8.039,5.493,73.427,5.493,73.427l-9.588-0.202c0,0-12.221-33.017-12.914-62.616
					C339.304,292.016,315.3,272.779,315.3,272.779z"/>
				<path d="M338.622,279.385c0,0-0.816,5.419,1.753,10.571c-3.677-2.229-7.046-4.396-10.057-6.4
					c-0.311-0.565-0.485-0.903-0.485-0.903L338.622,279.385z"/>
				<path style="fill:#263238;" d="M400.574,380.608c0,0-11.125-8.273-11.447-13.863l-7.983,0.557l-1.655,8.581l4.259,1.501
					l0.867-1.028l0.869,1.639c3.451,1.216,12.663,4.313,15.105,4.298C401.044,381.213,400.574,380.608,400.574,380.608z"/>
				<polygon style="fill:#407BFF;" points="391.506,369.728 380.279,369.072 379.447,364.15 392.059,364.061 				"/>
			</g>
			<g>
				<path style="fill:#263238;" d="M302.227,271.449l26.608-10.258c0,0,18.549,60.393,16.984,69.252
					c-1.565,8.859-39.465,62.163-39.465,62.163l-7.568-5.891c0,0,9.927-33.778,27.055-57.927
					C309.981,301.216,302.227,271.449,302.227,271.449z"/>
				<path style="fill:#263238;" d="M306.183,408.864c0,0-3.978-13.281-0.896-17.956l-6.734-4.323l-6.454,5.893l2.519,3.749
					l1.309-0.306l-0.283,1.833c2.04,3.037,7.577,11.025,9.545,12.471C306.199,409.63,306.183,408.864,306.183,408.864z"/>
				<polygon style="fill:#407BFF;" points="305.413,394.721 296.801,387.488 299.075,383.044 309.242,390.508 				"/>
			</g>
			<path style="fill:#263238;" d="M310.606,198.487c2.286,1.438,4.778,2.999,7.188,4.458c2.426,1.485,4.879,2.902,7.316,4.284
				c2.447,1.357,4.898,2.65,7.315,3.789c2.398,1.093,4.852,2.103,6.834,2.573l-2.499,0.067c0.074,0.065,0.718-0.116,1.412-0.414
				c0.709-0.299,1.519-0.744,2.335-1.248c1.635-1.015,3.372-2.221,5.064-3.527c1.717-1.289,3.424-2.671,5.143-4.07l5.152-4.233
				l0.074-0.061c1.569-1.289,3.885-1.062,5.174,0.506c0.991,1.206,1.081,2.861,0.359,4.144c-1.209,2.138-2.496,4.072-3.878,6.028
				c-1.384,1.938-2.858,3.822-4.447,5.669c-1.615,1.825-3.297,3.645-5.312,5.36c-1.008,0.861-2.078,1.711-3.353,2.534
				c-1.287,0.818-2.725,1.623-4.874,2.208c-0.679,0.185-1.363,0.223-2.019,0.135l-0.481-0.068
				c-3.858-0.536-6.998-1.576-10.064-2.724c-1.515-0.581-2.992-1.194-4.444-1.83c-1.439-0.654-2.853-1.331-4.25-2.024
				c-2.792-1.383-5.486-2.885-8.135-4.439c-2.662-1.583-5.187-3.161-7.819-5.01c-3.306-2.323-4.103-6.885-1.78-10.19
				c2.247-3.198,6.591-4.048,9.865-1.996L310.606,198.487z"/>
			<path style="fill:#FFB573;" d="M360.153,204.004c3.623,0.258,6.544-5.83,6.544-5.83l2.411-3.415
				c0.817-1.157,0.676-2.736-0.333-3.73l-2.536-2.497c-1.156-1.138-3.021-1.104-4.135,0.076l-2.842,3.01
				c-0.507,0.537-0.893,1.178-1.13,1.878l-0.965,2.85c-0.827,2.442-0.172,5.143,1.683,6.934l0.243,0.235
				C359.381,203.792,359.754,203.976,360.153,204.004z"/>
			<path style="fill:#E0E0E0;" d="M353.492,201.379c0,0,0.872-1.954,1.57-3.354c2.252-0.396,7.843,4.312,8.579,6.303
				c-0.488,1.076-3.217,3.21-3.217,3.21C358.712,205.618,354.824,202.727,353.492,201.379z"/>
			<path style="fill:#FFFFFF;" d="M271.45,216.999c8.133-6.178,20.719-13.354,29.959-16.781c4.705-1.745,10.134-0.171,13.218,3.765
				c9.132,11.654,16.589,28.705,28.418,51.673c-15.369,17.702-39.474,22.806-39.474,22.806c-3.313-4.098-6.409-13.757-9.928-22.245
				c-6.304-7.212-15.069-14.571-23.558-24.081C265.963,227.518,266.605,220.679,271.45,216.999z"/>
			<path style="fill:#E6E6E6;" d="M329.832,262.278c-0.199,0-0.387-0.119-0.465-0.315c-8.208-20.659-30.739-45.244-35.332-48.418
				c-0.227-0.157-0.284-0.468-0.127-0.695c0.156-0.228,0.467-0.284,0.695-0.127c4.645,3.209,27.415,28.037,35.693,48.871
				c0.102,0.256-0.023,0.547-0.28,0.649C329.957,262.267,329.894,262.278,329.832,262.278z"/>
			<path style="fill:#263238;" d="M277.977,212.438c17.127,8.869,9.38,62.185,36.171,85.563
				c-15.779-0.087-26.785-11.356-26.785-11.356s-10.039-43.38-19.954-55.962C261.372,223.022,269.939,216.51,277.977,212.438z"/>
			<path style="fill:#263238;" d="M293.941,203.702c8.826,3.344,56.988,46.576,58.059,70.964c4.815-17.393-3.29-32.003-3.29-32.003
				s-16.245-18.229-23.351-27.908c-7.106-9.679-15.483-18.954-22.097-16.904C294.795,200.477,293.941,203.702,293.941,203.702z"/>
			<g>
				<path style="fill:#FFB573;" d="M270.398,195.211l14.736,2.39c0.703,4.185,2.371,7.999,8.807,6.102
					c2.493,1.043,1.245,4.622-0.52,6.951c-4.035,1.717-10.069,3.546-14.195,1.726C278.513,209.484,274.316,199.73,270.398,195.211z"
					/>
				<path style="fill:#407BFF;" d="M294.601,207.201c0,0,0.49,2.013-0.255,4.325c-1.523,0.884-4.746,0.459-4.746,0.459
					s-0.541-2.913,0.383-4.107C293.507,206.844,294.601,207.201,294.601,207.201z"/>
				<path style="fill:#407BFF;" d="M291.819,211.416c0.52-1.533,1.314-2.106,1.307-2.101c8.164,7.549,27.946,12.129,32.655,15.676
					c2.263,1.558,6.33,5.598,6.285,10.715c-4.413-3.714-9.989-2.425-12.601-4.465C312.157,224.213,295.855,218.883,291.819,211.416z
					"/>
				<path style="opacity:0.2;" d="M276.543,196.21l8.584,1.389c0.165,1.005,0.391,1.984,0.73,2.867
					c-2.161,1.47-6.621,1.008-7.959-0.965C277.222,198.503,276.602,196.822,276.543,196.21z"/>
			</g>
			<path style="fill:#FFB573;" d="M264.828,193.628c5.637,4.665,8.701,7.685,13.941,7.53c7.881-0.233,11.554-9.168,7.413-15.439
				c-3.727-5.645-12.32-12.326-19.291-9.044C260.022,179.909,259.191,188.963,264.828,193.628z"/>
			<path style="fill:#263238;" d="M267.497,195.852c3.393-2.981,1.508-5.893-0.33-5.53c1.609-2.19-1.719-5.861-4.371-5.313
				c4.24-3.022,12.491-6.539,11.158-12.572c-1.249-5.655-11.909-5.306-11.649,1.848c1.786-0.608,2.206,2.13-3.012,4.364
				c-8.406,3.598-7.579,9.768-3.214,10.211C252.849,190.854,259.69,197.589,267.497,195.852z"/>
			<path style="fill:#263238;" d="M271.883,178.535c3.144-4.414,2.787-7.962,2.346-9.956
				C276.579,172.455,275.119,177.059,271.883,178.535z"/>
			<path style="fill:#263238;" d="M250.925,188.174c5.315,1.058,8.405-0.722,10.043-1.941
				C258.395,189.965,253.597,190.521,250.925,188.174z"/>
			<path style="fill:#FFB573;" d="M266.055,198.622c1.493,1.001,3.311,1.212,4.758,0.893c2.177-0.479,2.239-2.688,0.774-4.204
				c-1.318-1.364-4.039-2.759-5.81-1.484C264.032,195.083,264.348,197.478,266.055,198.622z"/>
			<path style="fill:#263238;" d="M272.548,187.008c0.434,0.407,1,0.504,1.264,0.218c0.264-0.287,0.125-0.849-0.309-1.255
				c-0.434-0.407-1-0.504-1.264-0.218C271.976,186.039,272.114,186.601,272.548,187.008z"/>
			<path style="fill:#263238;" d="M277.691,182.124c0.434,0.407,1,0.504,1.264,0.218c0.264-0.287,0.125-0.849-0.309-1.255
				c-0.434-0.407-1-0.504-1.264-0.218C277.119,181.156,277.257,181.717,277.691,182.124z"/>
			<path style="fill:#ED893E;" d="M277.159,183.68c0,0,3.422,1.35,5.641,1.385c0.003,1.447-1.538,2.459-1.538,2.459L277.159,183.68z
				"/>
			<path style="fill:#263238;" d="M270.074,186.848c-0.037,0.045-0.086,0.08-0.144,0.102c-0.18,0.067-0.381-0.026-0.448-0.207
				c-0.673-1.822,0.266-3.135,0.307-3.19c0.114-0.156,0.332-0.188,0.487-0.073c0.154,0.115,0.187,0.334,0.074,0.49l0,0
				c-0.031,0.043-0.753,1.075-0.216,2.528C270.179,186.622,270.152,186.755,270.074,186.848z"/>
			<path style="fill:#263238;" d="M278.622,178.232c-0.053,0.1-0.153,0.172-0.274,0.183c-1.53,0.142-2.135,1.247-2.16,1.294
				c-0.091,0.17-0.301,0.234-0.47,0.143c-0.169-0.091-0.235-0.302-0.146-0.473c0.034-0.061,0.793-1.485,2.71-1.663
				c0.191-0.018,0.362,0.124,0.38,0.317C278.668,178.105,278.653,178.173,278.622,178.232z"/>
			<path style="fill:#E6E6E6;" d="M279.049,211.748c0,0-0.212-0.621-0.201-0.618c-0.465-0.025-2.209,1.583-1.349,2.465
				c2.946,2.913,10.409,2.709,13.434,1.817c-0.948-0.887-1.39-5.784-0.971-7.522C287.519,209.477,284.362,210.701,279.049,211.748z"
				/>
			<path style="fill:#E6E6E6;" d="M289.983,207.877c2.636-0.412,6.512,0.564,8.434,2.353c0.78-1.262-0.308-3.774-0.783-4.539
				c-1.504-2.587-3.12-3.89-5.857-1.538C291.626,205.237,292.509,206.223,289.983,207.877z"/>
			<path style="fill:#263238;" d="M279.212,228.823l-4.169,5.779c-1.391,1.951-2.745,3.917-4.055,5.871
				c-1.301,1.957-2.534,3.925-3.636,5.84c-0.549,0.959-1.033,1.908-1.462,2.806c-0.432,0.886-0.79,1.757-0.983,2.371
				c-0.371,1.073-0.476,3.033-0.295,5.029c0.209,2.028,0.58,4.236,1.159,6.45c1.074,4.44,2.716,9.097,4.333,13.543l0.064,0.176
				c0.691,1.9-0.288,4.001-2.189,4.693c-1.484,0.54-3.094,0.055-4.056-1.086c-1.784-2.125-3.257-4.225-4.698-6.487
				c-1.421-2.249-2.716-4.596-3.882-7.082c-1.124-2.497-2.172-5.116-2.865-8.02c-0.676-2.922-1.208-6.056-0.581-9.915
				c0.321-1.841,0.792-3.346,1.292-4.784c0.513-1.424,1.081-2.753,1.67-4.026c1.172-2.552,2.471-4.915,3.828-7.207
				c1.351-2.294,2.789-4.492,4.273-6.646c1.508-2.166,3-4.204,4.739-6.333c2.556-3.128,7.165-3.593,10.293-1.036
				c3.009,2.458,3.553,6.814,1.318,9.926L279.212,228.823z"/>
			<path style="fill:#FFB573;" d="M263.364,278.514c0.196-0.347,0.522-0.605,0.895-0.745l3.241-1.215
				c0.63-0.236,1.34-0.088,1.824,0.38l2.102,2.038c2.044,1.981,3.636,4.38,4.668,7.032l0.341,0.878
				c0.588,1.512-0.181,3.211-1.705,3.767l-3.344,1.22c-1.331,0.486-2.818-0.064-3.513-1.298l-2.051-3.643
				C265.823,286.928,261.573,281.676,263.364,278.514z"/>
			<path style="fill:#E0E0E0;" d="M269.548,275.421c0,0,2.039,1.569,2.82,2.925c-0.913,2.096-7.925,4.159-9.992,3.674
				c-0.628-1.001-0.901-4.455-0.901-4.455C264.022,277.196,267.689,275.788,269.548,275.421z"/>
			<path style="fill:#263238;" d="M280.665,190.941c0.274-0.23,0.543-0.496,0.801-0.805c0.07-0.083,0.053-0.204-0.038-0.27
				c-0.09-0.065-0.218-0.052-0.29,0.033c-1.883,2.26-4.48,2.077-4.506,2.075c-0.114-0.01-0.214,0.069-0.223,0.174
				c-0.009,0.106,0.076,0.199,0.19,0.209C276.7,192.364,278.791,192.513,280.665,190.941z"/>
		</g>
		<g>
			<path style="fill:#407BFF;" d="M365.794,185.052l46.727-17.534c0.784-0.294,1.074-1.135,0.643-1.868l-15.297-26.027
				c-0.431-0.733-1.425-1.092-2.21-0.798l-46.727,17.534c-0.784,0.294-1.074,1.135-0.643,1.868l15.297,26.027
				C364.016,184.987,365.01,185.346,365.794,185.052z"/>
			<path style="fill:#407BFF;" d="M363.373,220.982l46.727-17.534c0.784-0.294,1.491-1.292,1.57-2.216l2.813-32.822
				c0.079-0.925-0.498-1.44-1.282-1.146l-46.727,17.534c-0.785,0.294-1.491,1.292-1.57,2.216l-2.813,32.822
				C362.011,220.76,362.588,221.276,363.373,220.982z"/>
			<path style="opacity:0.2;" d="M366.565,188.103c0.084-0.927,0.796-1.926,1.573-2.217l44.695-16.772
				c0.761-0.286,1.56,0.32,1.491,1.13l-2.652,30.988c-0.083,0.927-0.784,1.926-1.572,2.217l-44.695,16.772
				c-0.761,0.286-1.561-0.32-1.491-1.13L366.565,188.103z"/>
		</g>
	</g>
	<g style="opacity:0.3;">
		
			<ellipse transform="matrix(0.5379 -0.843 0.843 0.5379 -33.1519 315.0121)" style="fill:#407BFF;" cx="270.776" cy="187.747" rx="23.538" ry="23.538"/>
		<path style="opacity:0.4;fill:#FFFFFF;" d="M254.263,197.781c3.735,0.333,7.183-4.121,7.703-9.949
			c0.52-5.828-2.086-10.823-5.821-11.156c-3.734-0.333-7.183,4.121-7.703,9.949C247.922,192.454,250.528,197.448,254.263,197.781z"
			/>
		<path style="opacity:0.4;fill:#FFFFFF;" d="M265.353,193.39c-1.033-0.558-2.531,0.215-3.346,1.725
			c-0.815,1.51-0.639,3.186,0.394,3.743c1.033,0.558,2.531-0.215,3.346-1.725C266.562,195.623,266.386,193.947,265.353,193.39z"/>
	</g>
</g>
</svg>
